<svg xmlns="http://www.w3.org/2000/svg" xmlns:xlink="http://www.w3.org/1999/xlink" width="500" zoomAndPan="magnify" viewBox="0 0 375 374.999991" height="500" preserveAspectRatio="xMidYMid meet" version="1.2"><defs><clipPath id="194814ce4e"><path d="M 0 7.300781 L 145.800781 7.300781 L 145.800781 359.289062 L 0 359.289062 Z M 0 7.300781 "/></clipPath><clipPath id="e9648b979a"><path d="M 145.800781 325.527344 C 145.800781 344.140625 113.160156 359.230469 72.894531 359.230469 C 32.632812 359.230469 -0.0078125 344.140625 -0.0078125 325.527344 L -0.0078125 41.007812 C -0.0078125 22.390625 32.632812 7.300781 72.894531 7.300781 C 113.160156 7.300781 145.800781 22.390625 145.800781 41.007812 Z M 145.800781 325.527344 "/></clipPath><clipPath id="6a8778c598"><path d="M 146 7.308594 L 375 7.308594 L 375 359.546875 L 146 359.546875 Z M 146 7.308594 "/></clipPath><clipPath id="2cc78cae1b"><path d="M 82.453125 183.273438 L 259.753906 183.273438 L 259.753906 253.871094 L 82.453125 253.871094 Z M 82.453125 183.273438 "/></clipPath><clipPath id="52b8b04e68"><path d="M 115 7 L 228 7 L 228 217 L 115 217 Z M 115 7 "/></clipPath><clipPath id="27b632324a"><path d="M 115.175781 201.378906 L 183.675781 7.292969 L 227.039062 22.597656 L 158.539062 216.683594 Z M 115.175781 201.378906 "/></clipPath><clipPath id="c98ae91f32"><path d="M 183.109375 7.308594 L 287.707031 7.308594 L 287.707031 53.292969 L 183.109375 53.292969 Z M 183.109375 7.308594 "/></clipPath><clipPath id="005a64884a"><path d="M 192 199 L 266 199 L 266 360 L 192 360 Z M 192 199 "/></clipPath><clipPath id="e94c95512a"><path d="M 230.15625 367.691406 L 156.742188 350.390625 L 192.355469 199.261719 L 265.769531 216.558594 Z M 230.15625 367.691406 "/></clipPath><clipPath id="ac410242cf"><path d="M 193.449219 359.039062 L 192.328125 199.386719 L 265.742188 216.6875 Z M 193.449219 359.039062 "/></clipPath></defs><g id="266abaea79"><g clip-rule="nonzero" clip-path="url(#194814ce4e)"><g clip-rule="nonzero" clip-path="url(#e9648b979a)"><path style=" stroke:none;fill-rule:nonzero;fill:#ff7a00;fill-opacity:1;" d="M 145.800781 7.300781 L 145.800781 359.289062 L -0.0078125 359.289062 L -0.0078125 7.300781 Z M 145.800781 7.300781 "/></g></g><g clip-rule="nonzero" clip-path="url(#6a8778c598)"><path style=" stroke:none;fill-rule:nonzero;fill:#ff7a00;fill-opacity:1;" d="M 188.9375 7.363281 L 322.464844 7.363281 L 253.308594 148.300781 L 374.929688 148.300781 L 193.695312 359.316406 L 241.386719 217.207031 L 146.003906 217.207031 Z M 188.9375 7.363281 "/></g><g clip-rule="nonzero" clip-path="url(#2cc78cae1b)"><path style=" stroke:none;fill-rule:nonzero;fill:#ff7a00;fill-opacity:1;" d="M 82.453125 183.273438 L 259.78125 183.273438 L 259.78125 253.871094 L 82.453125 253.871094 Z M 82.453125 183.273438 "/></g><g clip-rule="nonzero" clip-path="url(#52b8b04e68)"><g clip-rule="nonzero" clip-path="url(#27b632324a)"><path style=" stroke:none;fill-rule:nonzero;fill:#ff7a00;fill-opacity:1;" d="M 115.175781 201.378906 L 183.6875 7.253906 L 227.054688 22.558594 L 158.539062 216.683594 Z M 115.175781 201.378906 "/></g></g><g clip-rule="nonzero" clip-path="url(#c98ae91f32)"><path style=" stroke:none;fill-rule:nonzero;fill:#ff7a00;fill-opacity:1;" d="M 183.109375 7.308594 L 287.65625 7.308594 L 287.65625 53.292969 L 183.109375 53.292969 Z M 183.109375 7.308594 "/></g><g clip-rule="nonzero" clip-path="url(#005a64884a)"><g clip-rule="nonzero" clip-path="url(#e94c95512a)"><g clip-rule="nonzero" clip-path="url(#ac410242cf)"><path style=" stroke:none;fill-rule:nonzero;fill:#ff7a00;fill-opacity:1;" d="M 230.15625 367.691406 L 156.742188 350.390625 L 192.355469 199.261719 L 265.769531 216.558594 Z M 230.15625 367.691406 "/></g></g></g></g></svg>